<svg width="68" height="68" viewBox="0 0 68 68" fill="none" xmlns="http://www.w3.org/2000/svg">
<path d="M28.7958 46.0211C28.3942 45.5451 27.7992 45.3305 27.1999 45.2604H9.94492C9.24155 45.2604 8.66992 44.6888 8.66992 43.9854V41.3929H29.4524C30.6254 41.3929 31.5774 40.443 31.5774 39.2679C31.5774 38.0928 30.6254 37.1429 29.4524 37.1429H8.66992V8.9675C8.66992 8.71037 8.86967 8.5 9.11617 8.5H56.6737C56.9223 8.5 57.1412 8.71887 57.1412 8.9675V30.5362C57.1412 30.8954 57.2517 31.2162 57.4089 31.5116C57.7659 32.1852 58.4502 32.6612 59.2662 32.6612C60.4413 32.6612 61.3912 31.7092 61.3912 30.5362V8.9675C61.3912 6.3665 59.2747 4.25 56.6737 4.25H9.11617C6.5258 4.25 4.41992 6.3665 4.41992 8.9675V43.9875C4.41992 47.0348 6.8998 49.5125 9.94492 49.5125H25.4192C25.6062 50.6919 25.7422 51.9137 25.7549 53.2525C25.7549 54.5254 25.6189 55.76 25.4234 56.9712H21.4837C20.3107 56.9712 19.3587 57.9211 19.3587 59.0962C19.3587 60.2714 20.3107 61.2212 21.4837 61.2212H30.1537C31.3267 61.2212 32.2787 60.2714 32.2787 59.0962C32.2787 57.9211 31.3267 56.9712 30.1537 56.9712H29.7563C29.922 55.7324 30.0049 54.4446 30.0049 53.0804C29.9794 50.9277 29.7329 48.8474 29.2654 46.8945C29.14 46.5885 29.0125 46.2761 28.7958 46.0211Z" fill="#2662FA"/>
<path d="M62.1966 43.4689L60.2225 42.7443C60.0674 42.3065 59.8889 41.8794 59.6891 41.4608L60.5731 39.5525C60.9493 38.7429 60.7793 37.7866 60.1481 37.1576L57.4388 34.4483C56.8098 33.8193 55.8535 33.6493 55.0439 34.0233L53.1356 34.9073C52.7383 34.7181 52.3303 34.5524 51.9159 34.4015C51.8946 34.393 51.8755 34.3824 51.8543 34.376L51.1296 32.4019C50.8215 31.5646 50.0246 31.01 49.1364 31.01H45.305C44.4146 31.01 43.6178 31.5646 43.3118 32.4019L42.585 34.3781C42.1494 34.5333 41.7201 34.7118 41.3015 34.9094L39.3933 34.0254C38.5858 33.6514 37.6295 33.8193 36.9984 34.4504L34.289 37.1576C33.6579 37.7888 33.49 38.745 33.864 39.5546L34.748 41.4608C34.5483 41.8794 34.3698 42.3086 34.2146 42.7443L32.2426 43.4689C31.4054 43.777 30.8486 44.5718 30.8486 45.4621V45.4706V49.2935C30.8486 50.186 31.4054 50.9808 32.2426 51.2868L34.2146 52.0114C34.3698 52.447 34.5483 52.8763 34.7459 53.2949L33.8619 55.1989C33.4879 56.0085 33.6558 56.9648 34.2869 57.5959L36.9963 60.3053C37.6274 60.9343 38.5836 61.1064 39.3911 60.7303L41.2994 59.8463C41.7159 60.046 42.1451 60.2245 42.5829 60.3796L43.3096 62.3538C43.6135 63.1931 44.4104 63.7499 45.3008 63.7499H49.1321C50.0225 63.7499 50.8194 63.1931 51.1254 62.358L51.85 60.3839C52.2878 60.2288 52.7149 60.0503 53.1335 59.8526L55.0418 60.7345C55.8514 61.1106 56.8076 60.9385 57.4366 60.3095L60.146 57.6001C60.7771 56.969 60.9471 56.0128 60.571 55.2053L59.6891 53.2991C59.8868 52.8805 60.0653 52.4534 60.2204 52.0156L62.1945 51.291C63.0318 50.9829 63.5864 50.186 63.5864 49.2978V45.4664C63.5885 44.5739 63.0318 43.777 62.1966 43.4689ZM59.3385 47.8103L57.7745 48.3861C57.1243 48.6241 56.6313 49.1639 56.4528 49.8354C56.2339 50.6556 55.9088 51.4419 55.4859 52.1708C55.1374 52.77 55.1013 53.5031 55.3945 54.1321L56.0936 55.6451L55.4816 56.2571L53.9686 55.558C53.3418 55.2648 52.6108 55.303 52.0073 55.6494C51.2805 56.0723 50.4943 56.3995 49.6698 56.6184C49.0025 56.7948 48.4628 57.2878 48.2226 57.938L47.6489 59.4999H46.784L46.2081 57.9359C45.9701 57.2856 45.4304 56.7926 44.761 56.6163C43.9408 56.3953 43.1545 56.0701 42.4214 55.6473C41.8221 55.2945 41.0911 55.2626 40.4621 55.5559L38.9491 56.255L38.3371 55.6451L39.0384 54.1321C39.3316 53.501 39.2955 52.7679 38.947 52.1686C38.5199 51.4334 38.1948 50.6514 37.9801 49.8375C37.8038 49.166 37.3108 48.6241 36.6584 48.384L35.0923 47.8081V46.9454L36.6584 46.3695C37.3108 46.1315 37.8038 45.5896 37.9801 44.916C38.1948 44.1043 38.5199 43.318 38.947 42.5806C39.2955 41.9814 39.3316 41.2504 39.0384 40.6193L38.3371 39.1084L38.947 38.4985L40.4621 39.1976C41.0933 39.4951 41.8243 39.459 42.4214 39.1063C43.1545 38.6834 43.9408 38.3561 44.761 38.1373C45.4283 37.9609 45.968 37.4679 46.2081 36.8176L46.784 35.2536H47.6489L48.2248 36.8176C48.4628 37.4679 49.0025 37.9609 49.6719 38.1373C50.4964 38.3583 51.2826 38.6834 52.0094 39.1063C52.6108 39.4548 53.3418 39.493 53.9708 39.1976L55.4859 38.4964L56.0958 39.1084L55.3966 40.6214C55.1034 41.2504 55.1395 41.9814 55.488 42.5806C55.9109 43.3138 56.2381 44.1 56.4549 44.9203C56.6334 45.5896 57.1264 46.1294 57.7766 46.3695L59.3406 46.9454L59.3385 47.8103Z" fill="#2662FA"/>
<path d="M47.2175 41.0039C43.7028 41.0039 40.8425 43.8642 40.8425 47.3789C40.8425 50.8937 43.7028 53.7539 47.2175 53.7539C50.7323 53.7539 53.5925 50.8937 53.5925 47.3789C53.5925 43.8642 50.7323 41.0039 47.2175 41.0039ZM47.2175 49.5039C46.0445 49.5039 45.0925 48.5519 45.0925 47.3789C45.0925 46.2059 46.0445 45.2539 47.2175 45.2539C48.3905 45.2539 49.3425 46.2059 49.3425 47.3789C49.3425 48.5519 48.3884 49.5039 47.2175 49.5039Z" fill="#2662FA"/>
<path d="M38.0502 11.7703C36.9898 11.273 35.7212 11.7342 35.226 12.7967L26.7154 31.0441C26.2203 32.1066 26.6793 33.373 27.7418 33.8682C28.0329 34.0042 28.3389 34.0679 28.6386 34.0679C29.4376 34.0679 30.2047 33.6153 30.5659 32.8418L39.0766 14.5944C39.5738 13.5298 39.1127 12.2654 38.0502 11.7703Z" fill="#2662FA"/>
<path d="M25.7868 15.3445C25.0196 14.4584 23.6766 14.3628 22.7884 15.1299L15.7695 21.2117C15.3041 21.6154 15.0364 22.2019 15.0364 22.8182C15.0364 23.4344 15.3041 24.0209 15.7695 24.4247L22.7884 30.5085C23.19 30.857 23.6851 31.027 24.1781 31.027C24.7731 31.027 25.366 30.7784 25.7846 30.2939C26.5518 29.4078 26.4561 28.0648 25.57 27.2955L20.4041 22.8182L25.57 18.3429C26.4583 17.5737 26.5539 16.2307 25.7868 15.3445Z" fill="#2662FA"/>
<path d="M40.0074 30.294C40.4281 30.7806 41.021 31.0271 41.6139 31.0271C42.1069 31.0271 42.6041 30.855 43.0057 30.5086L50.0246 24.4248C50.49 24.021 50.7577 23.4345 50.7577 22.8183C50.7577 22.202 50.49 21.6155 50.0246 21.2118L43.0057 15.13C42.1196 14.365 40.7787 14.4543 40.0074 15.3446C39.2402 16.2308 39.3359 17.5738 40.222 18.343L45.39 22.8183L40.222 27.2956C39.3359 28.0649 39.2402 29.4079 40.0074 30.294Z" fill="#2662FA"/>
</svg>
