<svg width="88" height="88" viewBox="0 0 88 88" fill="none" xmlns="http://www.w3.org/2000/svg">
<path d="M73.6071 44C74.7274 42.8428 75.7691 41.6828 76.7204 40.5266C82.739 33.2111 84.5983 26.6619 81.9563 22.0859C79.3145 17.5098 72.7133 15.8457 63.3685 17.4001C61.8969 17.6449 60.3772 17.9657 58.8207 18.3552C58.3745 16.7795 57.8857 15.2716 57.3537 13.8452C54.0248 4.917 49.2825 0 44.0001 0C38.7177 0 33.9753 4.917 30.6464 13.8452C30.1146 15.2716 29.6258 16.7795 29.1796 18.3552C27.6233 17.9656 26.1036 17.6449 24.632 17.4001C15.2875 15.846 8.68594 17.5098 6.04405 22.0859C3.40199 26.6621 5.2615 33.2111 11.2801 40.5266C12.2312 41.6828 13.2731 42.8428 14.3934 44C13.2731 45.1572 12.2314 46.3172 11.2801 47.4734C5.26133 54.7889 3.40182 61.3379 6.04388 65.9141C9.37911 71.6908 18.0708 71.6913 24.6318 70.5999C26.1034 70.3551 27.6231 70.0342 29.1795 69.6448C29.6256 71.2205 30.1145 72.7284 30.6462 74.1548C33.9753 83.083 38.7177 88 44.0001 88C49.2825 88 54.0248 83.083 57.3537 74.1548C57.8855 72.7284 58.3745 71.2205 58.8207 69.6448C60.3772 70.0344 61.8969 70.3551 63.3685 70.5999C69.9291 71.6911 78.6214 71.6908 81.9563 65.9141C84.5983 61.3381 82.739 54.7889 76.7204 47.4734C75.7693 46.3172 74.7274 45.1572 73.6071 44ZM23.7857 65.5134C16.9191 66.6557 11.9559 65.8415 10.5092 63.3359C9.06252 60.8302 10.8392 56.1249 15.2615 50.7494C16.1312 49.6923 17.085 48.6303 18.1117 47.5693C20.6211 49.8171 23.4079 52.0279 26.4118 54.1527C26.7485 57.8151 27.2673 61.3355 27.9561 64.6374C26.5269 64.995 25.1333 65.2893 23.7857 65.5134ZM26.0056 47.4404C24.5462 46.3078 23.1585 45.1586 21.8516 44C23.1585 42.8416 24.5462 41.6922 26.0056 40.5596C25.9714 41.6988 25.9532 42.8459 25.9532 44C25.9532 45.1541 25.9714 46.3012 26.0056 47.4404ZM26.4119 33.8473C23.4081 35.9721 20.6213 38.1829 18.1119 40.4307C17.0851 39.3697 16.1312 38.3077 15.2617 37.2506C10.8394 31.8751 9.06269 27.1698 10.5094 24.6641C11.956 22.1585 16.9191 21.3443 23.7858 22.4866C25.1333 22.7107 26.5271 23.005 27.9564 23.3626C27.2675 26.6645 26.7486 30.185 26.4119 33.8473ZM55.9806 30.1391C55.0102 29.5391 54.0245 28.9489 53.0235 28.3709C52.0239 27.7937 51.0212 27.236 50.0178 26.6963C51.7312 25.9976 53.4231 25.3694 55.0826 24.8162C55.4306 26.5299 55.7305 28.3083 55.9806 30.1391ZM35.4776 15.6466C37.9269 9.07792 41.1127 5.15625 44.0001 5.15625C46.8874 5.15625 50.0733 9.07792 52.5225 15.6466C53.0103 16.9551 53.4592 18.3404 53.8696 19.79C50.6626 20.8405 47.3484 22.1506 44.0001 23.6926C40.6518 22.1506 37.3373 20.8404 34.1305 19.79C34.5409 18.3404 34.9899 16.955 35.4776 15.6466ZM32.9177 24.8162C34.5772 25.3694 36.2691 25.9976 37.9826 26.6963C36.979 27.236 35.9764 27.7937 34.9766 28.3709C33.9756 28.9489 32.9899 29.539 32.0195 30.1391C32.2696 28.3083 32.5695 26.5299 32.9177 24.8162ZM32.0195 57.8609C32.9899 58.4609 33.9756 59.0511 34.9766 59.6291C35.9763 60.2063 36.979 60.764 37.9826 61.3037C36.2691 62.0024 34.5772 62.6306 32.9177 63.1838C32.5695 61.4701 32.2696 59.6917 32.0195 57.8609ZM52.5225 72.3534C50.0733 78.9221 46.8874 82.8438 44.0001 82.8438C41.1127 82.8438 37.9269 78.9221 35.4776 72.3534C34.9899 71.0449 34.5409 69.6596 34.1305 68.21C37.3375 67.1596 40.6518 65.8494 44.0001 64.3074C47.3484 65.8494 50.6628 67.1595 53.8696 68.21C53.4592 69.6596 53.0103 71.045 52.5225 72.3534ZM55.0824 63.1838C53.4229 62.6306 51.731 62.0025 50.0176 61.3037C51.0212 60.764 52.0237 60.2063 53.0233 59.6291C54.0243 59.0513 55.01 58.461 55.9804 57.8609C55.7305 59.6917 55.4306 61.4701 55.0824 63.1838ZM56.6453 51.2999C54.6632 52.6316 52.5914 53.9247 50.4454 55.1636C48.2997 56.4025 46.1442 57.5499 44.0001 58.6006C41.8559 57.5501 39.7004 56.4025 37.5548 55.1636C35.4087 53.9247 33.3369 52.6316 31.3549 51.2999C31.1931 48.9167 31.1094 46.4762 31.1094 44C31.1094 41.5238 31.1931 39.0833 31.3549 36.7001C33.3369 35.3684 35.4087 34.0753 37.5548 32.8364C39.7004 31.5975 41.8559 30.4501 44.0001 29.3994C46.1442 30.4499 48.2997 31.5975 50.4454 32.8364C52.5914 34.0753 54.6632 35.3684 56.6453 36.7001C56.807 39.0833 56.8907 41.5238 56.8907 44C56.8907 46.4762 56.807 48.9167 56.6453 51.2999ZM64.2143 22.4866C71.0809 21.3443 76.0441 22.1585 77.4908 24.6641C78.9374 27.1698 77.1609 31.8751 72.7384 37.2506C71.8687 38.3077 70.915 39.3697 69.8882 40.4307C67.3789 38.1829 64.5921 35.9721 61.5882 33.8473C61.2515 30.1849 60.7326 26.6645 60.0439 23.3626C61.4732 23.005 62.8668 22.7107 64.2143 22.4866ZM61.9945 40.5596C63.4539 41.6922 64.8416 42.8414 66.1486 44C64.8416 45.1584 63.4539 46.3078 61.9945 47.4404C62.0287 46.3012 62.0469 45.1541 62.0469 44C62.0469 42.8459 62.0287 41.6988 61.9945 40.5596ZM77.4908 63.3359C76.0441 65.8417 71.0809 66.6557 64.2143 65.5134C62.8668 65.2893 61.4732 64.995 60.0439 64.6374C60.7326 61.3355 61.2515 57.8151 61.5882 54.1527C64.5921 52.0279 67.3789 49.8169 69.8882 47.5693C70.915 48.6305 71.8687 49.6923 72.7384 50.7494C77.1611 56.1249 78.9374 60.8302 77.4908 63.3359ZM44.0001 36.2656C39.7353 36.2656 36.2657 39.7353 36.2657 44C36.2657 48.2647 39.7353 51.7344 44.0001 51.7344C48.2648 51.7344 51.7344 48.2647 51.7344 44C51.7344 39.7353 48.265 36.2656 44.0001 36.2656ZM44.0001 46.5781C42.5785 46.5781 41.4219 45.4216 41.4219 44C41.4219 42.5784 42.5785 41.4219 44.0001 41.4219C45.4216 41.4219 46.5782 42.5784 46.5782 44C46.5782 45.4216 45.4216 46.5781 44.0001 46.5781Z" fill="url(#paint0_linear_1_2371)"/>
<defs>
<linearGradient id="paint0_linear_1_2371" x1="44.0001" y1="88" x2="44.0001" y2="0" gradientUnits="userSpaceOnUse">
<stop stop-color="#5558FF"/>
<stop offset="1" stop-color="#00C0FF"/>
</linearGradient>
</defs>
</svg>
