<svg width="68" height="68" viewBox="0 0 68 68" fill="none" xmlns="http://www.w3.org/2000/svg">
<path d="M34 66.5391C51.9708 66.5391 66.5391 51.9708 66.5391 34C66.5391 16.0292 51.9708 1.46094 34 1.46094C16.0292 1.46094 1.46094 16.0292 1.46094 34C1.46094 51.9708 16.0292 66.5391 34 66.5391Z" fill="#2662FA"/>
<path d="M37.5369 50.4463H23.1931V56.5782H37.5369V50.4463Z" fill="#445EA0"/>
<path d="M25.8284 50.4463H23.1931V56.5782H25.8284V50.4463Z" fill="#2E4C89"/>
<path d="M44.2443 59.7656C44.2443 60.1309 43.9455 60.4297 43.5802 60.4297H17.1501C16.7849 60.4297 16.4861 60.1309 16.4861 59.7656V57.1094C16.4861 56.7441 16.7849 56.4453 17.1501 56.4453H43.5802C43.9455 56.4453 44.2443 56.7441 44.2443 57.1094V59.7656Z" fill="#293D7C"/>
<path d="M19.1214 59.7656V57.1094C19.1214 56.7441 19.4202 56.4453 19.7854 56.4453H17.1501C16.7849 56.4453 16.4861 56.7441 16.4861 57.1094V59.7656C16.4861 60.1309 16.7849 60.4297 17.1501 60.4297H19.7854C19.4202 60.4297 19.1214 60.1309 19.1214 59.7656Z" fill="#1A2B63"/>
<path d="M0 49.2513C0 49.9818 0.597656 50.5794 1.32812 50.5794H41.1951V41.6875H0V49.2513Z" fill="#293D7C"/>
<path d="M2.63527 49.2513V41.6875H0V49.2513C0 49.9818 0.597656 50.5794 1.32812 50.5794H3.96339C3.23292 50.5794 2.63527 49.9818 2.63527 49.2513Z" fill="#1A2B63"/>
<path d="M41.1951 38.1154C41.1951 37.8224 41.4334 37.5841 41.7264 37.5841H60.7305V8.82731C60.7305 8.02432 60.0736 7.36743 59.2708 7.36743H1.45987C0.656891 7.36743 0 8.02432 0 8.82731V41.8203H41.1951V38.1154Z" fill="#445EA0"/>
<path d="M41.195 38.1156C41.195 37.8226 41.4333 37.5843 41.7263 37.5843H57.8108V10.9514C57.8108 10.5862 57.512 10.2874 57.1468 10.2874H3.58374C3.21851 10.2874 2.91968 10.5862 2.91968 10.9514V38.2365C2.91968 38.6018 3.21851 38.9006 3.58374 38.9006H41.1949L41.195 38.1156Z" fill="#EEF6FF"/>
<path d="M30.3649 48.0943C31.3853 48.0943 32.2124 47.2671 32.2124 46.2467C32.2124 45.2263 31.3853 44.3992 30.3649 44.3992C29.3445 44.3992 28.5173 45.2263 28.5173 46.2467C28.5173 47.2671 29.3445 48.0943 30.3649 48.0943Z" fill="#445EA0"/>
<path d="M55.298 27.4093C55.298 27.7746 54.9992 28.0734 54.6339 28.0734H33.5889C33.2236 28.0734 32.9248 27.7746 32.9248 27.4093V17.7515C32.9248 17.3862 33.2236 17.0874 33.5889 17.0874H54.6339C54.9992 17.0874 55.298 17.3862 55.298 17.7515V27.4093Z" fill="#2662FA"/>
<path d="M35.5601 27.4093V17.7515C35.5601 17.3862 35.8589 17.0874 36.2241 17.0874H33.5889C33.2236 17.0874 32.9248 17.3862 32.9248 17.7515V27.4093C32.9248 27.7746 33.2236 28.0734 33.5889 28.0734H36.2241C35.8589 28.0734 35.5601 27.7746 35.5601 27.4093Z" fill="#FF9518"/>
<path d="M39.7463 31.8911H34.0205C33.4704 31.8911 33.0244 31.4453 33.0244 30.895C33.0244 30.3448 33.4704 29.8989 34.0205 29.8989H39.7463C40.2964 29.8989 40.7424 30.3448 40.7424 30.895C40.7424 31.4453 40.2964 31.8911 39.7463 31.8911Z" fill="#C3DDF4"/>
<path d="M39.7463 34.9185H34.0205C33.4704 34.9185 33.0244 34.4726 33.0244 33.9224C33.0244 33.3721 33.4704 32.9263 34.0205 32.9263H39.7463C40.2964 32.9263 40.7424 33.3721 40.7424 33.9224C40.7424 34.4726 40.2964 34.9185 39.7463 34.9185Z" fill="#C3DDF4"/>
<path d="M46.6545 31.8911H42.3965C41.8464 31.8911 41.4004 31.4453 41.4004 30.895C41.4004 30.3448 41.8464 29.8989 42.3965 29.8989H46.6545C47.2046 29.8989 47.6505 30.3448 47.6505 30.895C47.6505 31.4453 47.2046 31.8911 46.6545 31.8911Z" fill="#C3DDF4"/>
<path d="M46.6545 34.9185H42.3965C41.8464 34.9185 41.4004 34.4726 41.4004 33.9224C41.4004 33.3721 41.8464 32.9263 42.3965 32.9263H46.6545C47.2046 32.9263 47.6505 33.3721 47.6505 33.9224C47.6505 34.4726 47.2046 34.9185 46.6545 34.9185Z" fill="#C3DDF4"/>
<path d="M54.6884 31.8911H49.2649C48.7148 31.8911 48.2688 31.4453 48.2688 30.895C48.2688 30.3448 48.7148 29.8989 49.2649 29.8989H54.6884C55.2385 29.8989 55.6845 30.3448 55.6845 30.895C55.6845 31.4453 55.2385 31.8911 54.6884 31.8911Z" fill="#C3DDF4"/>
<path d="M54.6884 34.9185H49.2649C48.7148 34.9185 48.2688 34.4726 48.2688 33.9224C48.2688 33.3721 48.7148 32.9263 49.2649 32.9263H54.6884C55.2385 32.9263 55.6845 33.3721 55.6845 33.9224C55.6845 34.4726 55.2385 34.9185 54.6884 34.9185Z" fill="#C3DDF4"/>
<path d="M47.7281 14.7533C47.7281 15.1185 47.4293 15.4173 47.0641 15.4173H45.6033C45.238 15.4173 44.9392 15.1185 44.9392 14.7533V13.2925C44.9392 12.9272 45.238 12.6284 45.6033 12.6284H47.0641C47.4293 12.6284 47.7281 12.9272 47.7281 13.2925V14.7533Z" fill="#EF8318"/>
<path d="M51.4466 14.7533C51.4466 15.1185 51.1478 15.4173 50.7826 15.4173H49.3218C48.9565 15.4173 48.6577 15.1185 48.6577 14.7533V13.2925C48.6577 12.9272 48.9565 12.6284 49.3218 12.6284H50.7826C51.1478 12.6284 51.4466 12.9272 51.4466 13.2925V14.7533Z" fill="#EF8318"/>
<path d="M55.1651 14.7533C55.1651 15.1185 54.8663 15.4173 54.5011 15.4173H53.0403C52.675 15.4173 52.3762 15.1185 52.3762 14.7533V13.2925C52.3762 12.9272 52.675 12.6284 53.0403 12.6284H54.5011C54.8663 12.6284 55.1651 12.9272 55.1651 13.2925V14.7533Z" fill="#EF8318"/>
<path d="M25.3538 34.1335H24.1584C23.6083 34.1335 23.1624 33.6877 23.1624 33.1375C23.1624 32.5872 23.6083 32.1414 24.1584 32.1414H25.3538C25.9039 32.1414 26.3499 32.5872 26.3499 33.1375C26.3499 33.6877 25.9039 34.1335 25.3538 34.1335Z" fill="#69CDFF"/>
<path d="M20.8381 34.1335H19.6428C19.0927 34.1335 18.6467 33.6877 18.6467 33.1375C18.6467 32.5872 19.0927 32.1414 19.6428 32.1414H20.8381C21.3882 32.1414 21.8342 32.5872 21.8342 33.1375C21.8342 33.6877 21.3882 34.1335 20.8381 34.1335Z" fill="#69CDFF"/>
<path d="M16.3223 34.1335H15.127C14.5768 34.1335 14.1309 33.6877 14.1309 33.1375C14.1309 32.5872 14.5768 32.1414 15.127 32.1414H16.3223C16.8724 32.1414 17.3184 32.5872 17.3184 33.1375C17.3185 33.6877 16.8725 34.1335 16.3223 34.1335Z" fill="#69CDFF"/>
<path d="M11.8066 34.1335H10.6113C10.0612 34.1335 9.61523 33.6877 9.61523 33.1375C9.61523 32.5872 10.0612 32.1414 10.6113 32.1414H11.8066C12.3568 32.1414 12.8027 32.5872 12.8027 33.1375C12.8027 33.6877 12.3569 34.1335 11.8066 34.1335Z" fill="#69CDFF"/>
<path d="M29.2385 30.0298C28.6884 30.0298 28.2424 29.5839 28.2424 29.0337V27.8384C28.2424 27.2883 28.6884 26.8423 29.2385 26.8423C29.7886 26.8423 30.2346 27.2883 30.2346 27.8384V29.0337C30.2346 29.5839 29.7886 30.0298 29.2385 30.0298Z" fill="#69CDFF"/>
<path d="M29.2385 25.5142C28.6884 25.5142 28.2424 25.0683 28.2424 24.5181V23.3228C28.2424 22.7726 28.6884 22.3267 29.2385 22.3267C29.7886 22.3267 30.2346 22.7726 30.2346 23.3228V24.5181C30.2346 25.0683 29.7886 25.5142 29.2385 25.5142Z" fill="#69CDFF"/>
<path d="M29.2385 20.9985C28.6884 20.9985 28.2424 20.5527 28.2424 20.0024V18.8071C28.2424 18.257 28.6884 17.811 29.2385 17.811C29.7886 17.811 30.2346 18.257 30.2346 18.8071V20.0024C30.2346 20.5527 29.7886 20.9985 29.2385 20.9985Z" fill="#69CDFF"/>
<path d="M6.66016 30.0298C6.11005 30.0298 5.66406 29.5839 5.66406 29.0337V27.8384C5.66406 27.2883 6.11005 26.8423 6.66016 26.8423C7.21027 26.8423 7.65625 27.2883 7.65625 27.8384V29.0337C7.65625 29.5839 7.2104 30.0298 6.66016 30.0298Z" fill="#69CDFF"/>
<path d="M6.66016 25.5142C6.11005 25.5142 5.66406 25.0683 5.66406 24.5181V23.3228C5.66406 22.7726 6.11005 22.3267 6.66016 22.3267C7.21027 22.3267 7.65625 22.7726 7.65625 23.3228V24.5181C7.65625 25.0683 7.2104 25.5142 6.66016 25.5142Z" fill="#69CDFF"/>
<path d="M6.66016 20.9985C6.11005 20.9985 5.66406 20.5527 5.66406 20.0024V18.8071C5.66406 18.257 6.11005 17.811 6.66016 17.811C7.21027 17.811 7.65625 18.257 7.65625 18.8071V20.0024C7.65625 20.5527 7.2104 20.9985 6.66016 20.9985Z" fill="#69CDFF"/>
<path d="M25.3538 16.071H24.1584C23.6083 16.071 23.1624 15.6252 23.1624 15.075C23.1624 14.5247 23.6083 14.0789 24.1584 14.0789H25.3538C25.9039 14.0789 26.3499 14.5247 26.3499 15.075C26.3499 15.6252 25.9039 16.071 25.3538 16.071Z" fill="#69CDFF"/>
<path d="M20.8381 16.071H19.6428C19.0927 16.071 18.6467 15.6252 18.6467 15.075C18.6467 14.5247 19.0927 14.0789 19.6428 14.0789H20.8381C21.3882 14.0789 21.8342 14.5247 21.8342 15.075C21.8342 15.6252 21.3882 16.071 20.8381 16.071Z" fill="#69CDFF"/>
<path d="M16.3223 16.071H15.127C14.5768 16.071 14.1309 15.6252 14.1309 15.075C14.1309 14.5247 14.5768 14.0789 15.127 14.0789H16.3223C16.8724 14.0789 17.3184 14.5247 17.3184 15.075C17.3184 15.6252 16.8725 16.071 16.3223 16.071Z" fill="#69CDFF"/>
<path d="M11.8066 16.071H10.6113C10.0612 16.071 9.61523 15.6252 9.61523 15.075C9.61523 14.5247 10.0612 14.0789 10.6113 14.0789H11.8066C12.3568 14.0789 12.8027 14.5247 12.8027 15.075C12.8027 15.6252 12.3569 16.071 11.8066 16.071Z" fill="#69CDFF"/>
<path d="M26.5823 29.8171C26.5823 30.1824 26.2834 30.4812 25.9182 30.4812H9.98071C9.61548 30.4812 9.31665 30.1824 9.31665 29.8171V18.3953C9.31665 18.03 9.61548 17.7312 9.98071 17.7312H25.9182C26.2834 17.7312 26.5823 18.03 26.5823 18.3953V29.8171Z" fill="#5DC1D8"/>
<path d="M11.9518 29.8171V18.3953C11.9518 18.03 12.2506 17.7312 12.6159 17.7312H9.98047C9.61523 17.7312 9.31641 18.03 9.31641 18.3953V29.8171C9.31641 30.1824 9.61523 30.4812 9.98047 30.4812H12.6159C12.2506 30.4812 11.9518 30.1824 11.9518 29.8171Z" fill="#28A5A5"/>
<path d="M31.0974 16.0715C31.0974 16.4368 30.7986 16.7356 30.4333 16.7356H27.6443C27.2791 16.7356 26.9802 16.4368 26.9802 16.0715V13.2825C26.9802 12.9172 27.2791 12.6184 27.6443 12.6184H30.4333C30.7986 12.6184 31.0974 12.9172 31.0974 13.2825V16.0715Z" fill="#52BBEF"/>
<path d="M9.05054 16.3372C9.05054 16.7024 8.75171 17.0012 8.38647 17.0012H5.59741C5.23218 17.0012 4.93335 16.7024 4.93335 16.3372V13.5481C4.93335 13.1829 5.23218 12.884 5.59741 12.884H8.38647C8.75171 12.884 9.05054 13.1829 9.05054 13.5481V16.3372Z" fill="#52BBEF"/>
<path d="M31.0974 34.6484C31.0974 35.0137 30.7986 35.3125 30.4333 35.3125H27.6443C27.2791 35.3125 26.9802 35.0137 26.9802 34.6484V31.8594C26.9802 31.4941 27.2791 31.1953 27.6443 31.1953H30.4333C30.7986 31.1953 31.0974 31.4941 31.0974 31.8594V34.6484Z" fill="#52BBEF"/>
<path d="M9.05054 34.6484C9.05054 35.0137 8.75171 35.3125 8.38647 35.3125H5.59741C5.23218 35.3125 4.93335 35.0137 4.93335 34.6484V31.8594C4.93335 31.4941 5.23218 31.1953 5.59741 31.1953H8.38647C8.75171 31.1953 9.05054 31.4941 9.05054 31.8594V34.6484Z" fill="#52BBEF"/>
<path d="M28.4441 16.0715V13.2825C28.4441 12.9172 28.7429 12.6184 29.1081 12.6184H27.6443C27.2791 12.6184 26.9802 12.9172 26.9802 13.2825V16.0715C26.9802 16.4368 27.2791 16.7356 27.6443 16.7356H29.1081C28.7429 16.7356 28.4441 16.4368 28.4441 16.0715Z" fill="#1E99D6"/>
<path d="M6.39721 16.3372V13.5481C6.39721 13.1829 6.69604 12.884 7.06127 12.884H5.59741C5.23218 12.884 4.93335 13.1829 4.93335 13.5481V16.3372C4.93335 16.7024 5.23218 17.0012 5.59741 17.0012H7.06127C6.69604 17.0012 6.39721 16.7024 6.39721 16.3372Z" fill="#1E99D6"/>
<path d="M28.4441 34.6484V31.8594C28.4441 31.4941 28.7429 31.1953 29.1081 31.1953H27.6443C27.2791 31.1953 26.9802 31.4941 26.9802 31.8594V34.6484C26.9802 35.0137 27.2791 35.3125 27.6443 35.3125H29.1081C28.7429 35.3125 28.4441 35.0137 28.4441 34.6484Z" fill="#1E99D6"/>
<path d="M6.39721 34.6484V31.8594C6.39721 31.4941 6.69604 31.1953 7.06127 31.1953H5.59741C5.23218 31.1953 4.93335 31.4941 4.93335 31.8594V34.6484C4.93335 35.0137 5.23218 35.3125 5.59741 35.3125H7.06127C6.69604 35.3125 6.39721 35.0137 6.39721 34.6484Z" fill="#1E99D6"/>
<path d="M57.8343 48.7119C57.8138 48.6559 57.8154 48.624 57.8183 48.6136C57.8183 48.6136 57.8265 48.6128 57.8341 48.6128C57.8492 48.6128 57.8757 48.6159 57.9156 48.6306L63.5076 50.6846V38.1155C63.5076 37.7502 63.2087 37.4514 62.8435 37.4514H41.7263C41.3611 37.4514 41.0623 37.7502 41.0623 38.1155V53.3624C41.0623 53.7276 41.3611 54.0264 41.7263 54.0264H59.7862L57.8343 48.7119Z" fill="#5DC1D8"/>
<path d="M43.6975 53.3624V38.1155C43.6975 37.7502 43.9964 37.4514 44.3616 37.4514H41.7263C41.3611 37.4514 41.0623 37.7502 41.0623 38.1155V53.3624C41.0623 53.7276 41.3611 54.0264 41.7263 54.0264H44.3616C43.9964 54.0264 43.6975 53.7276 43.6975 53.3624Z" fill="#28A5A5"/>
<path d="M57.9612 48.5061C57.7425 48.4257 57.6291 48.539 57.7094 48.7579L61.211 58.2914C61.2914 58.5103 61.4921 58.5544 61.6569 58.3896L63.5159 56.5306C63.6807 56.3658 63.9504 56.3658 64.1155 56.5306L66.2575 58.6729C66.4223 58.8377 66.6921 58.8377 66.857 58.6729L67.8762 57.6537C68.041 57.4889 68.041 57.219 67.8762 57.0542L65.7341 54.912C65.5693 54.7472 65.5693 54.4775 65.7341 54.3125L67.5929 52.4535C67.7579 52.2888 67.7137 52.0882 67.4948 52.0078L57.9612 48.5061Z" fill="#293D7C"/>
</svg>
