<svg width="157" height="40" viewBox="0 0 157 40" fill="none" xmlns="http://www.w3.org/2000/svg">
<path d="M50.3175 33.1155C47.7512 33.1155 45.5921 32.548 43.8401 31.4129C42.0881 30.2531 40.8543 28.6862 40.1387 26.7121L44.5063 24.1582C45.518 26.7985 47.5044 28.1187 50.4655 28.1187C51.8968 28.1187 52.9455 27.8596 53.6117 27.3414C54.278 26.8232 54.6111 26.1693 54.6111 25.3796C54.6111 24.4666 54.2039 23.7634 53.3896 23.2698C52.5753 22.7517 51.1195 22.1964 49.022 21.6042C47.8622 21.2588 46.8752 20.9133 46.0609 20.5678C45.2713 20.2224 44.4693 19.7659 43.655 19.1983C42.8654 18.6061 42.2608 17.8658 41.8413 16.9775C41.4218 16.0892 41.2121 15.0528 41.2121 13.8683C41.2121 11.5241 42.0387 9.66108 43.692 8.27923C45.37 6.8727 47.3811 6.16943 49.7253 6.16943C51.8227 6.16943 53.6611 6.68763 55.2403 7.72402C56.8443 8.73573 58.0904 10.1546 58.9787 11.9806L54.6851 14.4605C53.6487 12.2397 51.9955 11.1293 49.7253 11.1293C48.6642 11.1293 47.8252 11.3761 47.2083 11.8696C46.6161 12.3384 46.32 12.9553 46.32 13.7203C46.32 14.5346 46.6531 15.2008 47.3194 15.719C48.0103 16.2125 49.3181 16.7554 51.2428 17.3476C52.0325 17.5944 52.6247 17.7918 53.0195 17.9398C53.439 18.0632 53.9942 18.273 54.6851 18.5691C55.4007 18.8405 55.9436 19.0996 56.3137 19.3464C56.7086 19.5931 57.1527 19.9263 57.6462 20.3458C58.1398 20.7652 58.5099 21.1971 58.7567 21.6412C59.0281 22.0854 59.2502 22.6283 59.4229 23.2698C59.6203 23.8867 59.719 24.5653 59.719 25.3056C59.719 27.6992 58.843 29.5992 57.091 31.0058C55.3637 32.4123 53.1059 33.1155 50.3175 33.1155Z" fill="#FFBB38"/>
<path d="M73.1183 13.5722C75.1418 13.5722 76.8074 14.2508 78.1152 15.608C79.4477 16.9651 80.114 18.8405 80.114 21.2341V32.5973H75.3392V21.8263C75.3392 20.5925 75.006 19.6548 74.3398 19.0133C73.6735 18.347 72.7852 18.0139 71.6748 18.0139C70.441 18.0139 69.454 18.3964 68.7137 19.1613C67.9734 19.9263 67.6033 21.0737 67.6033 22.6036V32.5973H62.8285V6.68763H67.6033V16.1632C68.763 14.4359 70.6014 13.5722 73.1183 13.5722Z" fill="#FFBB38"/>
<path d="M99.9589 30.3025C98.0588 32.1779 95.7393 33.1155 93.0003 33.1155C90.2613 33.1155 87.9417 32.1779 86.0417 30.3025C84.1663 28.4024 83.2286 26.0829 83.2286 23.3439C83.2286 20.6048 84.1663 18.2977 86.0417 16.4223C87.9417 14.5222 90.2613 13.5722 93.0003 13.5722C95.7393 13.5722 98.0588 14.5222 99.9589 16.4223C101.859 18.2977 102.809 20.6048 102.809 23.3439C102.809 26.0829 101.859 28.4024 99.9589 30.3025ZM89.4099 27.0083C90.3723 27.9706 91.5691 28.4518 93.0003 28.4518C94.4315 28.4518 95.6283 27.9706 96.5906 27.0083C97.553 26.0459 98.0342 24.8244 98.0342 23.3439C98.0342 21.8633 97.553 20.6419 96.5906 19.6795C95.6283 18.7171 94.4315 18.236 93.0003 18.236C91.5691 18.236 90.3723 18.7171 89.4099 19.6795C88.4723 20.6419 88.0034 21.8633 88.0034 23.3439C88.0034 24.8244 88.4723 26.0459 89.4099 27.0083Z" fill="#FFBB38"/>
<path d="M116.939 13.5722C119.431 13.5722 121.553 14.5222 123.305 16.4223C125.082 18.2977 125.97 20.6048 125.97 23.3439C125.97 26.0829 125.082 28.4024 123.305 30.3025C121.553 32.1779 119.431 33.1155 116.939 33.1155C114.348 33.1155 112.349 32.2149 110.943 30.4135V40.0001H106.168V14.0904H110.943V16.2742C112.349 14.4729 114.348 13.5722 116.939 13.5722ZM112.386 27.1193C113.349 28.0817 114.57 28.5628 116.051 28.5628C117.531 28.5628 118.753 28.0817 119.715 27.1193C120.702 26.1323 121.196 24.8738 121.196 23.3439C121.196 21.814 120.702 20.5678 119.715 19.6055C118.753 18.6184 117.531 18.1249 116.051 18.1249C114.57 18.1249 113.349 18.6184 112.386 19.6055C111.424 20.5678 110.943 21.814 110.943 23.3439C110.943 24.8738 111.424 26.1323 112.386 27.1193Z" fill="#FFBB38"/>
<path d="M152.73 23.0597C150.114 25.6506 146.931 26.9461 143.18 26.9461C139.429 26.9461 136.246 25.6506 133.631 23.0597C131.04 20.444 129.744 17.2485 129.744 13.4731C129.744 9.69764 131.04 6.51444 133.631 3.92347C136.246 1.30782 139.429 0 143.18 0C146.931 0 150.114 1.30782 152.73 3.92347C155.345 6.51444 156.653 9.69764 156.653 13.4731C156.653 17.2485 155.345 20.444 152.73 23.0597ZM137.221 19.5803C138.825 21.1596 140.811 21.9492 143.18 21.9492C145.549 21.9492 147.535 21.1596 149.139 19.5803C150.743 17.9764 151.545 15.9406 151.545 13.4731C151.545 11.0055 150.743 8.9697 149.139 7.36576C147.535 5.76183 145.549 4.95986 143.18 4.95986C140.811 4.95986 138.825 5.76183 137.221 7.36576C135.617 8.9697 134.815 11.0055 134.815 13.4731C134.815 15.9406 135.617 17.9764 137.221 19.5803Z" fill="#001B38"/>
<circle cx="16.4506" cy="20.2592" r="14.9506" stroke="#FFBB38" stroke-width="3"/>
<path d="M16.2429 12.0691C16.1239 12.1238 16.0177 12.2365 15.9726 12.3555C15.9533 12.407 15.9372 12.6612 15.9372 12.925C15.9372 13.472 15.9694 13.4206 15.5994 13.4559C15.2744 13.4881 14.6888 13.6168 14.3091 13.7455C12.5426 14.3344 11.1011 15.5925 10.2902 17.2528C9.96525 17.9221 9.70462 18.7812 9.6467 19.3925C9.61131 19.7819 9.67244 19.74 9.07074 19.7529C8.49156 19.7626 8.45295 19.7754 8.2985 19.9846C8.20519 20.1101 8.20519 20.4125 8.2985 20.538C8.45295 20.7472 8.49156 20.7601 9.07074 20.7697C9.67244 20.7826 9.61131 20.7407 9.6467 21.1301C9.70462 21.7414 9.96525 22.6006 10.2902 23.2698C11.1043 24.9334 12.5394 26.185 14.322 26.7835C14.6888 26.9058 15.2647 27.0345 15.6026 27.0667C15.963 27.1021 15.9308 27.0474 15.9437 27.6459C15.9533 28.2186 15.9662 28.2604 16.1753 28.4149C16.3008 28.5082 16.6033 28.5082 16.7288 28.4149C16.9379 28.2604 16.9508 28.2186 16.9605 27.6523C16.9669 27.2983 16.983 27.1246 17.0087 27.1085C17.0312 27.0956 17.102 27.0828 17.1664 27.0828C17.3981 27.0828 18.1671 26.9187 18.5854 26.7803C20.1395 26.2687 21.4652 25.2133 22.3275 23.8007C22.8102 23.0092 23.1738 21.9538 23.2574 21.1108C23.2928 20.7504 23.2381 20.7826 23.8366 20.7697C24.4094 20.7601 24.4512 20.7472 24.6056 20.538C24.6989 20.4125 24.6989 20.1101 24.6056 19.9846C24.4512 19.7754 24.4094 19.7626 23.8366 19.7529C23.2381 19.74 23.2928 19.7722 23.2574 19.4118C23.222 19.0547 23.0901 18.4787 22.9518 18.0701C22.3597 16.3325 21.1048 14.9039 19.4574 14.0963C18.801 13.7745 17.929 13.5139 17.3047 13.4559C16.9347 13.4173 16.9733 13.4817 16.9605 12.88C16.9508 12.304 16.9379 12.2622 16.7352 12.111C16.6258 12.0305 16.3716 12.008 16.2429 12.0691ZM16.008 15.1999C16.14 15.4348 16.4842 15.5217 16.7224 15.3737C16.9058 15.2578 16.9669 15.1066 16.9669 14.7494V14.4502L17.1986 14.4759C18.1253 14.5886 19.1002 14.9779 19.895 15.5571C21.1531 16.4741 22.0122 17.9092 22.2246 19.4376L22.2664 19.7465H21.9575C21.6969 19.7465 21.6293 19.7594 21.5231 19.8205C21.1724 20.0168 21.182 20.5316 21.5392 20.7118C21.6357 20.7633 21.7258 20.7761 21.9639 20.7761H22.2664L22.2246 21.085C21.8706 23.6238 19.8145 25.6799 17.2758 26.0338L16.9669 26.0756V25.7732C16.9669 25.5351 16.954 25.445 16.9025 25.3484C16.7224 24.9913 16.2075 24.9816 16.0112 25.3324C15.9501 25.4385 15.9372 25.5061 15.9372 25.7667V26.0756L15.7377 26.0467C14.5794 25.8954 13.5626 25.445 12.6584 24.6856C11.603 23.7975 10.8308 22.3721 10.6667 21.0078L10.641 20.7761H10.9402C11.1783 20.7761 11.2684 20.7633 11.3649 20.7118C11.7285 20.5284 11.7285 19.9942 11.3649 19.8108C11.2684 19.7594 11.1783 19.7465 10.9402 19.7465H10.641L10.6667 19.5148C10.8308 18.1505 11.603 16.7251 12.6584 15.837C13.4564 15.1677 14.3799 14.7237 15.342 14.5403C15.5382 14.5017 15.7474 14.4663 15.8085 14.4631L15.9212 14.4534L15.9372 14.7752C15.9469 14.994 15.9726 15.1291 16.008 15.1999Z" fill="black"/>
<path d="M16.003 18.2502C15.649 18.3274 15.2758 18.5366 15.0023 18.8133C14.1979 19.6177 14.1914 20.9015 14.9862 21.6931C15.3788 22.0824 15.8099 22.2819 16.3344 22.3109C17.274 22.3624 18.1363 21.7639 18.4227 20.8565C18.5224 20.538 18.5224 19.9845 18.4227 19.666C18.0977 18.6427 17.0455 18.025 16.003 18.2502ZM16.9361 19.3635C17.1517 19.4793 17.2514 19.5823 17.3769 19.8236C17.4477 19.962 17.4606 20.0296 17.4606 20.2612C17.4638 20.5122 17.4542 20.5508 17.3544 20.7374C17.2321 20.9627 17.1292 21.0592 16.8879 21.1879C16.7495 21.2587 16.6819 21.2716 16.4502 21.2716C16.2186 21.2716 16.151 21.2587 16.0126 21.1879C15.7713 21.0592 15.6684 20.9627 15.5461 20.7374C15.4463 20.5508 15.4367 20.5122 15.4399 20.2612C15.4399 19.9395 15.5171 19.7464 15.7263 19.5373C16.048 19.2155 16.5275 19.1479 16.9361 19.3635Z" fill="#FFBB38"/>
</svg>
