<svg width="60" height="60" viewBox="0 0 60 60" fill="none" xmlns="http://www.w3.org/2000/svg">
<circle cx="30" cy="30" r="30" fill="white"/>
<circle cx="30" cy="30" r="29.5" stroke="#2662FA" stroke-opacity="0.8"/>
<g clip-path="url(#clip0_1_2106)">
<path d="M21.9768 41.2158V29.7742L18.2984 26.528L15 24.7266V39.1967C15 40.3139 15.9383 41.2158 17.0931 41.2158H21.9768Z" fill="#4285F4"/>
<path d="M38.7209 41.2157H43.6046C44.7629 41.2157 45.6977 40.3104 45.6977 39.1965V24.7266L41.9617 26.7899L38.7209 29.7741V41.2157Z" fill="#34A853"/>
<path d="M21.9768 29.7742L21.4763 25.3037L21.9768 21.0249L30.3489 27.0822L38.721 21.0249L39.2808 25.0727L38.721 29.7742L30.3489 35.8315L21.9768 29.7742Z" fill="#EA4335"/>
<path d="M38.7209 21.0248V29.7741L45.6977 24.7264V22.0343C45.6977 19.5374 42.7431 18.114 40.6746 19.6114L38.7209 21.0248Z" fill="#FBBC04"/>
<path d="M15 24.7265L18.2087 27.0481L21.9768 29.7741V21.0248L20.0231 19.6115C17.9511 18.1139 15 19.5375 15 22.0342V24.7264V24.7265Z" fill="#C5221F"/>
</g>
<defs>
<clipPath id="clip0_1_2106">
<rect width="30.6977" height="22.3256" fill="white" transform="translate(15 19)"/>
</clipPath>
</defs>
</svg>
