<svg width="60" height="60" viewBox="0 0 60 60" fill="none" xmlns="http://www.w3.org/2000/svg">
<circle cx="30" cy="30" r="30" fill="white"/>
<circle cx="30" cy="30" r="29.5" stroke="#2662FA" stroke-opacity="0.8"/>
<g clip-path="url(#clip0_1_2116)">
<path d="M43.5318 32.605C43.6212 31.9781 43.6673 31.3458 43.67 30.7126C43.67 26.9005 42.1556 23.2445 39.46 20.5489C36.7644 17.8533 33.1084 16.339 29.2963 16.339C28.6632 16.3416 28.0309 16.3878 27.404 16.4771C23.8609 14.5676 19.4847 15.2091 16.6388 18.0552C13.7928 20.9011 13.1514 25.2772 15.0609 28.8202C14.9715 29.4471 14.9254 30.0793 14.9226 30.7126C14.9226 38.651 21.358 45.0863 29.2963 45.0863C29.9295 45.0836 30.5619 45.0375 31.1888 44.9481C34.7317 46.8576 39.1078 46.2162 41.954 43.3701C44.7998 40.5242 45.4414 36.148 43.5318 32.605Z" fill="white"/>
<path d="M23.0664 33.5829C28.0925 33.5829 32.1669 29.5085 32.1669 24.4824C32.1669 19.4563 28.0925 15.3818 23.0664 15.3818C18.0403 15.3818 13.9658 19.4563 13.9658 24.4824C13.9658 29.5085 18.0403 33.5829 23.0664 33.5829Z" fill="url(#paint0_linear_1_2116)"/>
<path d="M35.5263 46.0429C40.5524 46.0429 44.6269 41.9684 44.6269 36.9423C44.6269 31.9162 40.5524 27.8418 35.5263 27.8418C30.5002 27.8418 26.4258 31.9162 26.4258 36.9423C26.4258 41.9684 30.5002 46.0429 35.5263 46.0429Z" fill="url(#paint1_linear_1_2116)"/>
<mask id="mask0_1_2116" style="mask-type:luminance" maskUnits="userSpaceOnUse" x="13" y="15" width="32" height="32">
<path d="M35.5263 27.8416C33.8992 27.8413 32.302 28.2782 30.9016 29.1067C33.2441 25.1567 32.2805 20.0805 28.6534 17.2636C25.0264 14.4465 19.8698 14.7694 16.6223 18.0169C13.3749 21.2643 13.052 26.421 15.869 30.048C18.6859 33.6751 23.762 34.6387 27.7122 32.2962C25.6149 35.8507 26.1721 40.3716 29.0698 43.3105C31.9676 46.2493 36.4802 46.8701 40.0639 44.8229C43.6476 42.7759 45.4051 38.5733 44.3454 34.5845C43.2858 30.5956 39.6748 27.8193 35.5474 27.8204L35.5263 27.8416Z" fill="url(#paint2_radial_1_2116)"/>
</mask>
<g mask="url(#mask0_1_2116)">
<path d="M29.0082 48.371C38.3999 48.371 46.0133 40.7576 46.0133 31.3659C46.0133 21.9743 38.3999 14.3608 29.0082 14.3608C19.6166 14.3608 12.0032 21.9743 12.0032 31.3659C12.0032 40.7576 19.6166 48.371 29.0082 48.371Z" fill="url(#paint3_radial_1_2116)"/>
</g>
<path d="M29.2963 45.0863C37.2347 45.0863 43.67 38.651 43.67 30.7126C43.67 22.7742 37.2347 16.3389 29.2963 16.3389C21.3579 16.3389 14.9226 22.7742 14.9226 30.7126C14.9226 38.651 21.3579 45.0863 29.2963 45.0863Z" fill="url(#paint4_linear_1_2116)"/>
<path d="M29.2963 45.0863C37.2347 45.0863 43.67 38.651 43.67 30.7126C43.67 22.7742 37.2347 16.3389 29.2963 16.3389C21.3579 16.3389 14.9226 22.7742 14.9226 30.7126C14.9226 38.651 21.3579 45.0863 29.2963 45.0863Z" fill="url(#paint5_linear_1_2116)"/>
<path d="M24.0549 28.9476C23.7169 28.3137 23.5485 27.6032 23.5659 26.8851C23.5442 25.9774 23.8541 25.0929 24.4377 24.3974C25.0517 23.7046 25.8359 23.1842 26.7128 22.8877C27.6654 22.5515 28.6688 22.3825 29.679 22.388C30.341 22.3834 31.0024 22.4331 31.6563 22.5368C32.1226 22.6149 32.5814 22.7323 33.0279 22.8877C33.4334 23.0277 33.7984 23.265 34.091 23.5787C34.3144 23.8305 34.4357 24.1565 34.4312 24.4931C34.4394 24.6695 34.4126 24.8458 34.3524 25.0118C34.2922 25.1779 34.1997 25.3303 34.0804 25.4605C33.969 25.5791 33.8336 25.6726 33.6833 25.7349C33.533 25.7972 33.3712 25.8269 33.2086 25.8219C32.981 25.8184 32.7565 25.7677 32.5494 25.6731C32.0486 25.4513 31.5336 25.263 31.0078 25.1095C30.5187 24.9816 30.0144 24.9208 29.5089 24.9289C28.8537 24.9069 28.2055 25.069 27.6377 25.3966C27.3987 25.5418 27.2034 25.7489 27.0725 25.9959C26.9415 26.243 26.8796 26.5208 26.8935 26.8001C26.8897 27.1633 27.0269 27.5139 27.2763 27.7781C27.5813 28.0928 27.9417 28.3487 28.3394 28.5329C28.7753 28.7455 29.4026 29.0326 30.2956 29.3941L30.572 29.5004C31.4153 29.8218 32.2239 30.2278 32.9853 30.7123C33.592 31.1056 34.104 31.6284 34.4844 32.2433C34.8583 32.8882 35.046 33.6243 35.0266 34.3696C35.0567 35.2825 34.792 36.1809 34.2717 36.9317C33.7379 37.654 32.996 38.1956 32.1455 38.484C31.1396 38.8427 30.0768 39.0156 29.0091 38.9942C27.5493 39.0427 26.0969 38.7667 24.7565 38.1863C24.4132 38.0317 24.111 37.7987 23.8742 37.5059C23.6879 37.2299 23.5914 36.9032 23.5978 36.5703C23.5862 36.3949 23.6135 36.2191 23.6778 36.0556C23.7422 35.892 23.8419 35.7447 23.9699 35.6242C24.2357 35.3889 24.5828 35.2668 24.9374 35.2839C25.3337 35.2895 25.7233 35.3879 26.0749 35.571C26.5107 35.7836 26.8509 35.9537 27.138 36.06C27.4226 36.1802 27.7181 36.2728 28.0205 36.3364C28.3935 36.4212 28.7755 36.4605 29.1581 36.4534C29.8352 36.5033 30.5093 36.3235 31.0716 35.9431C31.284 35.7804 31.4539 35.5688 31.5669 35.3263C31.6798 35.0838 31.7324 34.8176 31.7201 34.5504C31.7303 34.1567 31.5852 33.7748 31.3161 33.4872C30.9694 33.1336 30.5672 32.8392 30.1254 32.6155C29.6045 32.339 28.8603 32.0094 27.9142 31.6054C27.064 31.2669 26.2487 30.8467 25.4795 30.3509C24.9044 29.9684 24.403 29.5443 24.0549 28.9476Z" fill="white"/>
</g>
<defs>
<linearGradient id="paint0_linear_1_2116" x1="21.6418" y1="15.4881" x2="24.491" y2="33.4766" gradientUnits="userSpaceOnUse">
<stop offset="0.01" stop-color="#00B7F0"/>
<stop offset="0.34" stop-color="#009DE5"/>
<stop offset="0.76" stop-color="#0082D9"/>
<stop offset="1" stop-color="#0078D4"/>
</linearGradient>
<linearGradient id="paint1_linear_1_2116" x1="27.6378" y1="41.4926" x2="43.4149" y2="32.3921" gradientUnits="userSpaceOnUse">
<stop stop-color="#0078D4"/>
<stop offset="0.37" stop-color="#007AD5"/>
<stop offset="0.57" stop-color="#0082D9"/>
<stop offset="0.74" stop-color="#0090DF"/>
<stop offset="0.88" stop-color="#00A3E7"/>
<stop offset="1" stop-color="#00BCF2"/>
</linearGradient>
<radialGradient id="paint2_radial_1_2116" cx="0" cy="0" r="1" gradientUnits="userSpaceOnUse" gradientTransform="translate(28.854 30.6849) scale(15.3553 15.3432)">
<stop/>
<stop offset="1" stop-opacity="0"/>
</radialGradient>
<radialGradient id="paint3_radial_1_2116" cx="0" cy="0" r="1" gradientUnits="userSpaceOnUse" gradientTransform="translate(28.5114 31.3659) scale(17.0122)">
<stop/>
<stop offset="1" stop-opacity="0"/>
</radialGradient>
<linearGradient id="paint4_linear_1_2116" x1="23.6722" y1="20.9741" x2="38.0459" y2="45.8731" gradientUnits="userSpaceOnUse">
<stop stop-color="#00B7F0"/>
<stop offset="1" stop-color="#007CC1"/>
</linearGradient>
<linearGradient id="paint5_linear_1_2116" x1="28.0418" y1="45.0331" x2="30.5509" y2="16.3921" gradientUnits="userSpaceOnUse">
<stop stop-color="#0078D4"/>
<stop offset="1" stop-color="#00BCF2"/>
</linearGradient>
<clipPath id="clip0_1_2116">
<rect width="30.6977" height="30.6977" fill="white" transform="translate(13.9536 15.3486)"/>
</clipPath>
</defs>
</svg>
